# xmcd CD database file
#
# Track frame offsets:
#	150
#	11774
#	27673
#	55947
#	75221
#	96820
#	133194
#	151568
#	173092
#	199491
#	222065
#	253346
#
# Disc length: 3851 seconds
#
# Revision: 0
# Processed by: cddbd v1.5.2PL0 Copyright (c) Steve Scherf et al.
# Submitted via: CDex 1.50
#
DISCID=9d0f090c
DTITLE=Nuestro Ensamble - Visiones
DYEAR=2004
DGENRE=Jazz
TTITLE0=Julietica
TTITLE1=Selva inexplorada
TTITLE2=www.gait@s.com
TTITLE3=Visiones
TTITLE4=La sartén
TTITLE5=Spark of fire
TTITLE6=Almarama
TTITLE7=Ondas
TTITLE8=A.B.U.
TTITLE9=El polaco El soplaito
TTITLE10=De cómo al senor Jou...
TTITLE11=Luz
EXTD=YEAR: 2004
EXTT0=
EXTT1=
EXTT2=
EXTT3=
EXTT4=
EXTT5=
EXTT6=
EXTT7=
EXTT8=
EXTT9=
EXTT10=
EXTT11=
PLAYORDER=
